<svg width="800" height="600" viewBox="0 0 800 600" fill="none" xmlns="http://www.w3.org/2000/svg">
  <!-- Background gradient -->
  <rect width="800" height="600" fill="url(#preorderGradient)"/>
  <defs>
    <linearGradient id="preorderGradient" x1="0" y1="0" x2="800" y2="600">
      <stop offset="0%" stop-color="#f8fafc"/>
      <stop offset="100%" stop-color="#e2e8f0"/>
    </linearGradient>
  </defs>
  
  <!-- Decorative elements -->
  <circle cx="150" cy="120" r="70" fill="#dbeafe" opacity="0.6"/>
  <rect x="620" y="420" width="100" height="100" rx="16" fill="#fce7f3" opacity="0.5"/>
  <circle cx="680" cy="100" r="50" fill="#e0e7ff" opacity="0.5"/>
  
  <!-- Main card mockup -->
  <rect x="250" y="120" width="300" height="360" rx="16" fill="white" stroke="#e2e8f0" stroke-width="2"/>
  
  <!-- Calendar icon -->
  <rect x="280" y="150" width="60" height="60" rx="8" fill="#3b82f6" opacity="0.1"/>
  <rect x="290" y="160" width="40" height="8" rx="4" fill="#3b82f6"/>
  <rect x="295" y="175" width="10" height="10" rx="2" fill="#3b82f6"/>
  <rect x="310" y="175" width="10" height="10" rx="2" fill="#3b82f6"/>
  <rect x="325" y="175" width="10" height="10" rx="2" fill="#3b82f6"/>
  <rect x="295" y="190" width="10" height="10" rx="2" fill="#3b82f6" opacity="0.5"/>
  <rect x="310" y="190" width="10" height="10" rx="2" fill="#3b82f6" opacity="0.5"/>
  
  <!-- Title bars -->
  <rect x="355" y="160" width="140" height="16" rx="4" fill="#1e293b"/>
  <rect x="355" y="185" width="100" height="12" rx="4" fill="#94a3b8"/>
  
  <!-- Details section -->
  <rect x="280" y="240" width="240" height="12" rx="4" fill="#f1f5f9"/>
  <rect x="280" y="265" width="180" height="12" rx="4" fill="#f1f5f9"/>
  <rect x="280" y="290" width="200" height="12" rx="4" fill="#f1f5f9"/>
  
  <!-- Payment section -->
  <rect x="280" y="340" width="240" height="80" rx="12" fill="#f8fafc"/>
  <rect x="295" y="355" width="32" height="24" rx="4" fill="#6366f1" opacity="0.2"/>
  <!-- Credit card icon -->
  <rect x="300" y="361" width="22" height="12" rx="2" fill="#6366f1"/>
  <rect x="340" y="360" width="60" height="10" rx="4" fill="#cbd5e1"/>
  <rect x="340" y="375" width="40" height="8" rx="4" fill="#cbd5e1"/>
  
  <!-- Price -->
  <rect x="420" y="355" width="80" height="24" rx="8" fill="#10b981" opacity="0.1"/>
  <text x="435" y="372" font-family="Arial" font-size="16" font-weight="bold" fill="#10b981">150k</text>
  
  <!-- Button -->
  <rect x="280" y="440" width="240" height="48" rx="10" fill="#3b82f6"/>
  <text x="360" y="469" font-family="Arial" font-size="14" font-weight="600" fill="white" text-anchor="middle">Оплатить</text>
</svg>
