<svg xmlns="http://www.w3.org/2000/svg" width="121" height="37" viewBox="0 0 121 37" fill="none"><path fill-rule="evenodd" clip-rule="evenodd" d="M53.6555 11.8914L50.0121 17.1829L46.3471 11.8914H43.441L48.5157 19.0046L43.1808 26.4649H46.0868L50.0121 20.848L53.8941 26.4649H56.8001L51.4651 19.0046L56.5398 11.8914H53.6555Z" fill="#446CB3"></path><path fill-rule="evenodd" clip-rule="evenodd" d="M64.6724 13.7998C65.735 13.7998 66.5591 14.1468 67.123 14.8191C67.6652 15.4697 67.9688 16.4239 67.9905 17.6383H60.9423C61.0724 16.4673 61.4627 15.5347 62.07 14.8624C62.7206 14.1468 63.588 13.7998 64.6724 13.7998ZM64.6941 11.6311C62.7423 11.6311 61.1591 12.3251 60.0097 13.713C58.8603 15.0793 58.2748 16.9661 58.2748 19.2865C58.2748 21.607 58.9037 23.4287 60.1398 24.7299C61.376 26.0311 63.1109 26.7034 65.2579 26.7034C66.2338 26.7034 67.0579 26.6384 67.7519 26.4865C68.4459 26.3347 69.1832 26.0962 69.9423 25.7709L70.0507 25.7275V23.407L69.7905 23.5155C68.3158 24.1444 66.8194 24.4697 65.323 24.4697C63.935 24.4697 62.829 24.0576 62.07 23.2335C61.3326 22.4311 60.9206 21.26 60.8555 19.742H70.6579V18.2022C70.6579 16.2504 70.1158 14.6456 69.0531 13.4528C67.9905 12.2383 66.5158 11.6311 64.6941 11.6311Z" fill="#446CB3"></path><path fill-rule="evenodd" clip-rule="evenodd" d="M80.8723 11.6311C79.8748 11.6311 78.9422 11.8263 78.1398 12.2166C77.4241 12.5636 76.8169 13.0407 76.3832 13.648L76.0579 11.8697H73.976V26.4432H76.4916V18.8094C76.4916 17.0094 76.8169 15.7082 77.4892 14.9492C78.1398 14.1901 79.2025 13.7998 80.6121 13.7998C81.6748 13.7998 82.4555 14.06 82.9543 14.6022C83.4531 15.1444 83.6916 15.9685 83.6916 17.0745V26.4432H86.2073V16.9877C86.2073 15.1227 85.7519 13.7564 84.8627 12.8889C83.9736 12.0648 82.629 11.6311 80.8723 11.6311Z" fill="#446CB3"></path><path fill-rule="evenodd" clip-rule="evenodd" d="M95.8363 24.5347C94.6001 24.5347 93.6893 24.101 93.0604 23.2335C92.4315 22.3444 92.1062 20.9998 92.1062 19.2432C92.1062 17.5082 92.4315 16.142 93.0821 15.1877C93.711 14.2552 94.6218 13.7998 95.8363 13.7998C97.2459 13.7998 98.2652 14.2118 98.8941 15.0143C99.5447 15.8383 99.87 17.248 99.87 19.1998V19.6552C99.87 21.3902 99.5447 22.648 98.9158 23.407C98.2652 24.1661 97.2459 24.5347 95.8363 24.5347ZM99.8267 11.8914L99.87 12.8889L99.9351 13.5396C98.8941 12.26 97.4194 11.6094 95.5544 11.6094C93.6459 11.6094 92.1495 12.2817 91.0869 13.6263C90.0242 14.9492 89.4821 16.8143 89.4821 19.1998C89.4821 21.5637 90.0242 23.4287 91.0652 24.7299C92.1278 26.0311 93.6459 26.7034 95.5544 26.7034C97.4845 26.7034 98.9809 26.0311 100 24.6866L100.26 26.4432H102.364V5.92749H99.8483L99.8267 11.8914Z" fill="#446CB3"></path><path fill-rule="evenodd" clip-rule="evenodd" d="M107.829 6.59973C107.417 6.59973 107.07 6.72985 106.788 6.99009C106.506 7.25033 106.376 7.66238 106.376 8.20455C106.376 8.74672 106.506 9.13708 106.788 9.41901C107.07 9.70094 107.417 9.83106 107.829 9.83106C108.219 9.83106 108.566 9.70094 108.848 9.41901C109.13 9.13708 109.282 8.74672 109.282 8.20455C109.282 7.66238 109.13 7.27202 108.848 6.99009C108.566 6.72985 108.219 6.59973 107.829 6.59973Z" fill="#446CB3"></path><path fill-rule="evenodd" clip-rule="evenodd" d="M106.55 26.4649H109.087V11.8914H106.55V26.4649Z" fill="#446CB3"></path><path fill-rule="evenodd" clip-rule="evenodd" d="M119.952 24.3179C119.757 24.3829 119.475 24.4263 119.128 24.4914C118.781 24.5348 118.434 24.5781 118.043 24.5781C117.393 24.5781 116.872 24.3829 116.504 23.9492C116.135 23.5372 115.94 22.9082 115.94 22.1058V13.9299H120.06V11.8914H115.94V8.59497H114.378L113.446 11.6745L111.386 12.5853V13.9299H113.424V22.1926C113.424 25.1854 114.877 26.7251 117.74 26.7251C118.109 26.7251 118.521 26.6817 118.998 26.6167C119.475 26.5299 119.822 26.4432 120.082 26.3131L120.19 26.2697V24.2528L119.952 24.3179Z" fill="#446CB3"></path><path d="M20.4577 0.809448H10.7854L0.809448 18.0938L10.7854 35.3782L12.7589 31.9734L4.75644 18.0938L12.7589 4.23596H18.4842L20.4577 0.809448Z" fill="#446CB3"></path><path d="M13.6479 12.542L15.5997 9.15886L12.7588 4.23596L10.7853 7.6191L13.6479 12.542Z" fill="#D24D57"></path><path d="M24.8383 4.23596L26.8118 7.64079L12.7588 31.9734L10.7853 28.5685L24.8383 4.23596Z" fill="#D24D57"></path><path d="M17.1611 35.3782L19.1129 31.9734H24.8383L32.8407 18.0938L24.8383 4.23596L26.8117 0.809448L36.7877 18.0938L26.8117 35.3782H17.1611Z" fill="#446CB3"></path><path d="M23.9057 23.5806L21.9323 26.9854L24.8383 31.9734L26.8118 28.5902L23.9057 23.5806Z" fill="#D24D57"></path></svg>