<svg width="60" height="38" viewBox="0 0 60 38" fill="none" xmlns="http://www.w3.org/2000/svg">
<rect x="0.5" y="0.5" width="59" height="37" rx="7.5" fill="white" stroke="#D3D3D3"/>
<path d="M18.2466 6.855H27.4811C28.7703 6.855 29.5728 7.90603 29.272 9.20036L24.972 27.6585C24.6682 28.949 23.3782 30 22.0886 30H12.8537C11.5641 30 10.7624 28.949 11.0632 27.6585L15.3654 9.20036C15.6653 7.90603 16.9545 6.855 18.2466 6.855Z" fill="#ED171F"/>
<path d="M26.7132 6.855H37.3336C38.6223 6.855 38.0411 7.90603 37.7381 9.20036L33.4385 27.6585C33.1382 28.949 33.2324 30 31.9402 30H21.3206C20.0298 30 19.2303 28.949 19.5336 27.6585L23.8315 9.20036C24.1353 7.90603 25.424 6.855 26.7132 6.855Z" fill="#082F67"/>
<path d="M36.9136 6.855H46.1468C47.4368 6.855 48.2384 7.90603 47.9364 9.20036L43.6372 27.6585C43.3351 28.949 42.0455 30 40.7516 30H31.521C30.2288 30 29.4285 28.949 29.7314 27.6585L34.0293 9.20036C34.3318 7.90603 35.621 6.855 36.9136 6.855Z" fill="#006A65"/>
<path fill-rule="evenodd" clip-rule="evenodd" d="M38.4247 20.4849L37.2994 24.2089H37.6019L37.3681 24.979H37.0656L36.9951 25.218H35.9242L35.9968 24.979H33.82L34.0387 24.2664H34.2587L35.4005 20.4849L35.6286 19.7209H36.7212L36.6071 20.1072C36.6071 20.1072 36.8979 19.8972 37.1741 19.8254C37.4502 19.7528 39.0337 19.7265 39.0337 19.7265L38.799 20.4849H38.4247ZM36.4995 20.4849L36.2103 21.4365C36.2103 21.4365 36.5336 21.2909 36.7112 21.2421C36.8901 21.1958 37.1589 21.1777 37.1589 21.1777L37.3681 20.4849H36.4995ZM36.0669 21.9098L35.7678 22.8994C35.7678 22.8994 36.0984 22.73 36.276 22.6773C36.4549 22.6358 36.7255 22.6021 36.7255 22.6021L36.9377 21.9098H36.0669ZM35.3702 24.2197H36.241L36.4925 23.383H35.6217L35.3702 24.2197Z" fill="white"/>
<path d="M38.9076 19.7265H40.0736L40.0866 20.1613C40.0797 20.2343 40.1427 20.2689 40.2776 20.2689H40.5144L40.2979 20.9863H39.6687C39.1224 21.0265 38.9163 20.7918 38.9284 20.5286L38.9076 19.7265Z" fill="white"/>
<path d="M39.0602 23.1305H37.9487L38.1397 22.4909H39.4099L39.5918 21.9079H38.3368L38.5525 21.1875H42.0439L41.8252 21.9079H40.6545L40.4713 22.4909H41.6446L41.4514 23.1305H40.1808L39.9561 23.3998H40.4713L40.5962 24.2049C40.6096 24.284 40.6121 24.3363 40.6372 24.3708C40.6631 24.4006 40.8174 24.4145 40.9069 24.4145H41.0633L40.8256 25.198H40.4293C40.368 25.198 40.2772 25.1928 40.1532 25.1863C40.033 25.1759 39.9479 25.1064 39.8684 25.0683C39.7958 25.032 39.6869 24.9439 39.6618 24.7939L39.5374 23.9905L38.9608 24.7831C38.7772 25.032 38.5291 25.2226 38.1108 25.2226H37.3009L37.5131 24.5238H37.8221C37.9116 24.5238 37.9906 24.4888 38.0485 24.4586C38.1082 24.4335 38.1605 24.4037 38.2201 24.3155L39.0602 23.1305Z" fill="white"/>
<path d="M26.8864 21.3815H29.8294L29.612 22.0842H28.4348L28.252 22.6818H29.456L29.2365 23.4075H28.0333L27.7416 24.3811C27.7057 24.4892 28.026 24.5043 28.1418 24.5043L28.7451 24.4209L28.5035 25.223H27.1457C27.0389 25.223 26.9555 25.2079 26.8371 25.1811C26.7226 25.1525 26.672 25.1015 26.6214 25.0237C26.5722 24.9438 26.497 24.879 26.548 24.7096L26.9374 23.42H26.2692L26.4909 22.6818H27.1629L27.3414 22.0842H26.672L26.8864 21.3815Z" fill="white"/>
<path d="M28.8682 20.1195H30.0752L29.8544 20.8541H28.2052L28.0259 21.0084C27.9498 21.0832 27.923 21.0516 27.8232 21.1057C27.7303 21.1532 27.5337 21.2461 27.28 21.2461H26.7506L26.9658 20.5395H27.1244C27.2588 20.5395 27.35 20.5283 27.3962 20.4985C27.449 20.4656 27.5073 20.3909 27.5751 20.269L27.8777 19.718H29.0786L28.8682 20.1195Z" fill="white"/>
<path fill-rule="evenodd" clip-rule="evenodd" d="M30.5938 19.7264H31.6223L31.4728 20.2437C31.4728 20.2437 31.7969 19.9848 32.0247 19.8923C32.2511 19.8072 32.7641 19.7311 32.7641 19.7311L34.428 19.7225L33.861 21.6106C33.7659 21.9347 33.6548 22.1439 33.5852 22.239C33.5217 22.3366 33.4482 22.4183 33.3026 22.4974C33.1626 22.5722 33.0351 22.6154 32.9175 22.6275C32.8073 22.6357 32.6388 22.64 32.4046 22.6422H30.8025L30.3501 24.1366C30.3073 24.284 30.2865 24.354 30.3146 24.3937C30.3384 24.43 30.3928 24.4702 30.468 24.4702L31.1746 24.4037L30.9339 25.2226H30.1413C29.8898 25.2226 29.7066 25.2174 29.5778 25.2075C29.4559 25.198 29.3284 25.2075 29.2441 25.1414C29.1694 25.0766 29.0574 24.9918 29.06 24.9041C29.0683 24.8229 29.1011 24.688 29.1534 24.5039L30.5938 19.7264ZM32.7775 21.6344H31.0912L30.9884 21.9749H32.4473C32.6198 21.9533 32.6552 21.9779 32.669 21.9697L32.7775 21.6344ZM31.185 21.3271C31.185 21.3271 31.5139 21.0263 32.0778 20.9286C32.2062 20.9036 33.0083 20.9118 33.0083 20.9118L33.1297 20.5081H31.4305L31.185 21.3271Z" fill="white"/>
<path d="M33.5921 22.7747L33.4979 23.2285C33.4559 23.3693 33.4209 23.4778 33.3138 23.5686C33.2027 23.6632 33.0696 23.763 32.7606 23.763L32.191 23.7859L32.1862 24.2998C32.1785 24.4459 32.2178 24.4303 32.2411 24.4541C32.2675 24.4787 32.2904 24.4904 32.3168 24.4986L32.4961 24.4904L33.0415 24.4584L32.8168 25.2078H32.191C31.7524 25.2078 31.4274 25.1983 31.3202 25.1127C31.2156 25.0466 31.2018 24.9619 31.2048 24.8188L31.2441 22.8201H32.242L32.2295 23.2285H32.4702C32.5523 23.2285 32.6063 23.2198 32.6417 23.1986C32.6707 23.1749 32.6936 23.1437 32.7096 23.0932L32.8068 22.7747H33.5921Z" fill="white"/>
<path d="M19.3395 12.7519C19.3032 12.9127 18.6632 15.8704 18.6606 15.8722C18.5219 16.4698 18.4238 16.8985 18.0824 17.1721C17.8887 17.3311 17.6623 17.4094 17.4008 17.4094C16.9808 17.4094 16.734 17.2006 16.6921 16.8035L16.6843 16.6678C16.6843 16.6678 16.8122 15.8652 16.814 15.8622C16.814 15.8622 17.486 13.1664 17.6065 12.8116C17.6117 12.7917 17.6143 12.7817 17.6169 12.7714C16.3075 12.783 16.0745 12.7714 16.0594 12.7519C16.052 12.7783 16.017 12.946 16.017 12.946L15.3299 15.9815L15.2703 16.2408L15.1579 17.0826C15.1579 17.3311 15.2072 17.536 15.3044 17.7084C15.6177 18.2564 16.511 18.3377 17.0149 18.3377C17.6662 18.3377 18.2751 18.1985 18.6874 17.9478C19.4026 17.5243 19.591 16.8614 19.7583 16.2754L19.8352 15.975C19.8352 15.975 20.5288 13.1759 20.6473 12.8116C20.6507 12.7917 20.6529 12.7817 20.6576 12.7714C19.709 12.7817 19.4298 12.7714 19.3395 12.7519Z" fill="white"/>
<path d="M23.1723 18.3077C22.7073 18.3012 22.5444 18.3012 22.0011 18.3289L21.98 18.2887C22.0279 18.0821 22.0794 17.8785 22.1252 17.6689L22.1917 17.3867C22.2924 16.9464 22.3909 16.4347 22.4026 16.2804C22.4121 16.1862 22.4432 15.952 22.1757 15.952C22.0625 15.952 21.9449 16.0073 21.8265 16.0613C21.7608 16.2955 21.6282 16.9515 21.5672 17.2519C21.432 17.8829 21.4233 17.9542 21.3633 18.2666L21.3244 18.3077C20.8451 18.3012 20.6796 18.3012 20.1286 18.3289L20.1026 18.283C20.1951 17.9079 20.2867 17.5298 20.3749 17.1555C20.6057 16.1395 20.6601 15.7501 20.7245 15.2337L20.7677 15.203C21.3049 15.1278 21.435 15.1131 22.0163 14.9934L22.0655 15.0483L21.9778 15.372C22.0759 15.3141 22.1688 15.2549 22.2704 15.203C22.5444 15.0682 22.8495 15.0284 23.0176 15.0284C23.2713 15.0284 23.5496 15.0997 23.6663 15.394C23.7769 15.6564 23.7039 15.9805 23.5586 16.6175L23.4835 16.9412C23.3344 17.6504 23.3102 17.78 23.2267 18.2666L23.1723 18.3077Z" fill="white"/>
<path d="M25.0585 18.3077C24.7793 18.3064 24.5995 18.3012 24.4232 18.3064C24.2486 18.3077 24.0779 18.3168 23.8182 18.3289L23.8026 18.3064L23.7853 18.283C23.8562 18.0142 23.8964 17.92 23.9309 17.8245C23.9664 17.7299 24.001 17.6339 24.0623 17.3612C24.1436 17.006 24.1937 16.7571 24.2296 16.5397C24.2667 16.3284 24.2879 16.1495 24.3143 15.9416L24.3359 15.9252L24.3592 15.9053C24.6371 15.866 24.8147 15.84 24.9945 15.8124C25.1769 15.786 25.3605 15.7501 25.6488 15.6957L25.66 15.7207L25.6678 15.7462C25.6142 15.9662 25.5598 16.1862 25.5075 16.41C25.4561 16.6326 25.4016 16.8513 25.3532 17.073C25.2478 17.541 25.2067 17.7148 25.1816 17.8396C25.1587 17.9589 25.1509 18.0237 25.1095 18.2666L25.0844 18.2887L25.0585 18.3077Z" fill="white"/>
<path d="M29.2305 16.7091C29.3935 15.9948 29.2686 15.6607 29.1091 15.4563C28.8658 15.1477 28.4397 15.0479 27.9958 15.0479C27.7301 15.0479 27.0952 15.0751 26.5987 15.5332C26.2443 15.8621 26.0779 16.3107 25.9781 16.7389C25.8782 17.175 25.7628 17.9641 26.4867 18.2567C26.7114 18.3509 27.0313 18.3777 27.2396 18.3777C27.7698 18.3777 28.3135 18.2312 28.7206 17.7982C29.0382 17.446 29.1813 16.923 29.2305 16.7091ZM28.0166 16.6573C27.9911 16.777 27.8865 17.2256 27.7426 17.4161C27.6432 17.5562 27.5252 17.6404 27.3947 17.6404C27.358 17.6404 27.1285 17.6404 27.1242 17.2999C27.1216 17.1322 27.1566 16.9576 27.1985 16.7718C27.3208 16.2307 27.4651 15.7769 27.8329 15.7769C28.1225 15.7769 28.1415 16.1145 28.0166 16.6573Z" fill="white"/>
<path d="M40.5855 18.3561C40.0254 18.3509 39.8642 18.3509 39.3465 18.373L39.3115 18.331C39.4532 17.7982 39.595 17.267 39.7199 16.7286C39.8819 16.0298 39.9191 15.7329 39.9736 15.324L40.0155 15.2895C40.5713 15.2095 40.726 15.1875 41.3059 15.0803L41.3241 15.1278C41.2178 15.566 41.1115 16.0047 41.0103 16.4446C40.7964 17.3664 40.7186 17.8349 40.6365 18.3163L40.5855 18.3561Z" fill="white"/>
<path d="M40.8523 16.7721C41.0152 16.0612 40.3601 16.7094 40.2551 16.4748C40.0943 16.1092 40.195 15.3671 39.5493 15.1195C39.3017 15.0231 38.7183 15.148 38.2204 15.6031C37.8682 15.9307 37.7005 16.3736 37.6016 16.8015C37.5013 17.2315 37.3864 18.0189 38.1063 18.3015C38.3337 18.3979 38.5424 18.4256 38.7498 18.4173C39.4741 18.378 40.0265 17.2855 40.434 16.852C40.749 16.5098 40.8043 16.9808 40.8523 16.7721ZM39.7442 16.7189C39.717 16.833 39.612 17.2868 39.4681 17.4744C39.373 17.6088 39.1466 17.6939 39.0169 17.6939C38.9802 17.6939 38.7524 17.6939 38.7442 17.3564C38.7425 17.1904 38.7775 17.0158 38.8207 16.8283C38.943 16.2989 39.0874 15.8468 39.4551 15.8468C39.7451 15.8468 39.8687 16.1761 39.7442 16.7189Z" fill="white"/>
<path d="M32.4031 18.3077C31.9372 18.3012 31.7795 18.3012 31.2319 18.3289L31.2125 18.2887C31.2587 18.0821 31.3114 17.8785 31.3598 17.6689L31.4251 17.3867C31.5262 16.9464 31.6243 16.4347 31.6355 16.2804C31.6446 16.1862 31.6757 15.952 31.4104 15.952C31.2954 15.952 31.1792 16.0073 31.0599 16.0613C30.9951 16.2955 30.862 16.9515 30.798 17.2519C30.6653 17.8829 30.6563 17.9542 30.5962 18.2666L30.5564 18.3077C30.0776 18.3012 29.9134 18.3012 29.3637 18.3289L29.3386 18.283C29.4302 17.9079 29.5201 17.5298 29.6083 17.1555C29.8386 16.1395 29.8935 15.7501 29.9575 15.2337L30.0007 15.203C30.5378 15.1278 30.6684 15.1131 31.2496 14.9934L31.2954 15.0483L31.2112 15.372C31.3067 15.3141 31.4039 15.2549 31.5029 15.203C31.7751 15.0682 32.0828 15.0284 32.2475 15.0284C32.502 15.0284 32.7808 15.0997 32.9005 15.394C33.0098 15.6564 32.9359 15.9805 32.7894 16.6175L32.7164 16.9412C32.5643 17.6504 32.5409 17.78 32.4605 18.2666L32.4031 18.3077Z" fill="white"/>
<path d="M36.9307 14.4822C36.8486 14.8504 36.6096 15.1629 36.3006 15.3137C36.0452 15.4421 35.7344 15.4516 35.4129 15.4516H35.2059L35.2215 15.369C35.2215 15.369 35.6048 13.7048 35.6031 13.71L35.6143 13.6248L35.6212 13.5591L35.7742 13.5751C35.7742 13.5751 36.5616 13.6434 36.5815 13.6456C36.8931 13.764 37.0201 14.0769 36.9307 14.4822ZM36.4276 12.7467C36.4255 12.7467 36.0417 12.7518 36.0417 12.7518C35.0378 12.7631 34.6354 12.7583 34.4703 12.7385C34.4531 12.8119 34.428 12.9424 34.428 12.9424L34.0693 14.6115C34.0693 14.6115 33.2097 18.1565 33.1687 18.3229C34.0447 18.3134 34.4042 18.3134 34.5542 18.3285C34.5883 18.1621 34.7932 17.172 34.7932 17.172C34.7932 17.172 34.9682 16.4447 34.9786 16.4179C34.9786 16.4179 35.0326 16.3436 35.0883 16.3137H35.1683C35.9233 16.3137 36.7781 16.3137 37.4462 15.8206C37.9004 15.4831 38.2138 14.9848 38.3516 14.3802C38.3888 14.2316 38.4147 14.0535 38.4147 13.8772C38.4147 13.6456 38.368 13.4161 38.2323 13.2363C37.8918 12.7583 37.2142 12.7518 36.4276 12.7467Z" fill="white"/>
<path d="M45.1748 15.0751L45.1303 15.0254C44.5581 15.1399 44.4535 15.1598 43.9263 15.2293L43.8865 15.2674C43.8848 15.2739 43.8831 15.2842 43.8818 15.2924L43.8792 15.2842C43.4868 16.1913 43.4993 15.9951 43.1791 16.7073C43.1769 16.6736 43.1765 16.6525 43.1756 16.6187L43.0961 15.0751L43.0455 15.0254C42.4466 15.1399 42.4306 15.1598 41.8761 15.2293L41.8316 15.2674C41.8277 15.2877 41.8264 15.3076 41.8234 15.3292L41.8277 15.3374C41.8968 15.6931 41.8809 15.6131 41.9496 16.171C41.982 16.445 42.0243 16.7225 42.0567 16.9926C42.1121 17.4463 42.1423 17.6706 42.208 18.3612C41.835 18.981 41.7447 19.2148 41.3882 19.7584L41.4072 19.8077C41.9496 19.7874 42.0745 19.7874 42.4755 19.7874L42.5641 19.6884C42.8671 19.0354 45.1748 15.0751 45.1748 15.0751Z" fill="white"/>
<path d="M25.5693 15.4586C25.8753 15.2447 25.9146 14.9491 25.6553 14.7957C25.3926 14.6414 24.9353 14.6898 24.6259 14.9042C24.3143 15.1151 24.2802 15.4115 24.5399 15.5662C24.8001 15.7171 25.2595 15.673 25.5693 15.4586Z" fill="white"/>
<path d="M42.5238 19.7429L42.0727 20.5152C41.93 20.7788 41.6651 20.9771 41.2442 20.9784L40.5255 20.9668L40.7347 20.2706H40.8738C40.9477 20.2706 41.0018 20.2658 41.0432 20.2455C41.0787 20.2343 41.105 20.2062 41.1344 20.1647L41.3993 19.7429H42.5238Z" fill="white"/>
</svg>
